<svg xmlns="http://www.w3.org/2000/svg" viewBox="0 0 100 130" width="100%" height="100%">
  <path d="M50,115 C58,115 69,110 75,100 C86,83 91,63 85,44 C83,37 79,31 74,26 C73,25 71,26 71,27 C75,36 75,46 71,54 C69,58 66,62 62,65 C61,66 59,65 59,64 C59,58 57,51 54,46 C51,40 47,35 44,29 C37,18 39,6 44,-5 C44,-6 43,-7 42,-7 C33,6 27,21 27,37 C27,50 30,62 36,73 C37,75 35,77 33,76 C28,72 25,67 23,61 C22,58 20,58 20,60 C18,69 19,79 24,87 C30,98 38,107 48,112 C49,113 50,114 50,115 Z" fill="#34A853" />
</svg>
